<svg width="35" height="35" viewBox="0 0 35 35" fill="none" xmlns="http://www.w3.org/2000/svg">
<path d="M6.5625 0C4.82202 0 3.15282 0.691404 1.92211 1.92211C0.691404 3.15282 0 4.82202 0 6.5625L0 28.4375C0 30.178 0.691404 31.8472 1.92211 33.0779C3.15282 34.3086 4.82202 35 6.5625 35H28.4375C30.178 35 31.8472 34.3086 33.0779 33.0779C34.3086 31.8472 35 30.178 35 28.4375V6.5625C35 4.82202 34.3086 3.15282 33.0779 1.92211C31.8472 0.691404 30.178 0 28.4375 0L6.5625 0ZM12.0312 8.75C12.0312 9.62024 11.6855 10.4548 11.0702 11.0702C10.4548 11.6855 9.62024 12.0312 8.75 12.0312C7.87976 12.0312 7.04516 11.6855 6.42981 11.0702C5.81445 10.4548 5.46875 9.62024 5.46875 8.75C5.46875 7.87976 5.81445 7.04516 6.42981 6.42981C7.04516 5.81445 7.87976 5.46875 8.75 5.46875C9.62024 5.46875 10.4548 5.81445 11.0702 6.42981C11.6855 7.04516 12.0312 7.87976 12.0312 8.75ZM29.5312 8.75C29.5312 9.62024 29.1855 10.4548 28.5702 11.0702C27.9548 11.6855 27.1202 12.0312 26.25 12.0312C25.3798 12.0312 24.5452 11.6855 23.9298 11.0702C23.3145 10.4548 22.9687 9.62024 22.9687 8.75C22.9687 7.87976 23.3145 7.04516 23.9298 6.42981C24.5452 5.81445 25.3798 5.46875 26.25 5.46875C27.1202 5.46875 27.9548 5.81445 28.5702 6.42981C29.1855 7.04516 29.5312 7.87976 29.5312 8.75ZM26.25 29.5312C25.3798 29.5312 24.5452 29.1855 23.9298 28.5702C23.3145 27.9548 22.9687 27.1202 22.9687 26.25C22.9687 25.3798 23.3145 24.5452 23.9298 23.9298C24.5452 23.3145 25.3798 22.9687 26.25 22.9687C27.1202 22.9687 27.9548 23.3145 28.5702 23.9298C29.1855 24.5452 29.5312 25.3798 29.5312 26.25C29.5312 27.1202 29.1855 27.9548 28.5702 28.5702C27.9548 29.1855 27.1202 29.5312 26.25 29.5312ZM12.0312 26.25C12.0312 27.1202 11.6855 27.9548 11.0702 28.5702C10.4548 29.1855 9.62024 29.5312 8.75 29.5312C7.87976 29.5312 7.04516 29.1855 6.42981 28.5702C5.81445 27.9548 5.46875 27.1202 5.46875 26.25C5.46875 25.3798 5.81445 24.5452 6.42981 23.9298C7.04516 23.3145 7.87976 22.9687 8.75 22.9687C9.62024 22.9687 10.4548 23.3145 11.0702 23.9298C11.6855 24.5452 12.0312 25.3798 12.0312 26.25ZM17.5 20.7812C16.6298 20.7812 15.7952 20.4355 15.1798 19.8202C14.5645 19.2048 14.2187 18.3702 14.2187 17.5C14.2187 16.6298 14.5645 15.7952 15.1798 15.1798C15.7952 14.5645 16.6298 14.2187 17.5 14.2187C18.3702 14.2187 19.2048 14.5645 19.8202 15.1798C20.4355 15.7952 20.7812 16.6298 20.7812 17.5C20.7812 18.3702 20.4355 19.2048 19.8202 19.8202C19.2048 20.4355 18.3702 20.7812 17.5 20.7812Z" fill="#828EA6"/>
</svg>
