<svg width="36" height="29" viewBox="0 0 36 29" fill="none" xmlns="http://www.w3.org/2000/svg">
<path opacity="0.85" d="M11.3085 29C24.894 29 32.3257 17.8401 32.3257 8.17911C32.3287 7.86533 32.3243 7.55155 32.3123 7.23778C33.7587 6.19884 35.0073 4.91333 36 3.44121C34.648 4.03071 33.2159 4.42003 31.7498 4.59669C33.2946 3.68147 34.4516 2.24115 35.0055 0.543594C33.5549 1.39731 31.9662 1.99577 30.3098 2.3125C29.1964 1.137 27.7232 0.358267 26.1182 0.0969231C24.5132 -0.16442 22.8661 0.106211 21.432 0.866899C19.9979 1.62759 18.8568 2.83587 18.1855 4.3046C17.5142 5.77333 17.3502 7.42054 17.7188 8.99107C14.7818 8.84576 11.9085 8.08969 9.28537 6.77194C6.66228 5.45419 4.34807 3.60422 2.493 1.34217C1.55156 2.95524 1.26439 4.86299 1.68977 6.67829C2.11514 8.49359 3.2212 10.0805 4.7835 11.1169C3.61217 11.0794 2.46643 10.7675 1.44 10.2068V10.3071C1.44286 11.9966 2.03359 13.6333 3.11248 14.9411C4.19136 16.2488 5.69232 17.1475 7.362 17.4854C6.72811 17.6586 6.07327 17.7449 5.41575 17.7419C4.95207 17.7467 4.48912 17.7041 4.03425 17.6148C4.50538 19.0698 5.42425 20.3421 6.66188 21.253C7.89952 22.164 9.39379 22.6678 10.935 22.694C8.31623 24.7305 5.0833 25.8358 1.755 25.8325C1.16842 25.8369 0.582179 25.8033 0 25.7321C3.3782 27.8679 7.30185 29.0017 11.3085 29Z" fill="#828EA6"/>
</svg>
